# Blender v2.77 (sub 0) OBJ File: 'battleship.blend'
# www.blender.org
mtllib battleship.mtl
o Cube_Cube.001
v -0.550000 0.610100 -4.000000
v -0.750000 0.610100 -3.200000
v -1.000000 0.610100 -1.000000
v 0.000000 0.610100 -5.000000
v 0.550000 0.610100 -4.000000
v 0.750000 0.610100 -3.200000
v 1.000000 0.610100 -1.000000
v -0.550000 0.610100 4.000000
v -0.750000 0.610100 3.200000
v -1.000000 0.610100 1.000000
v 0.000000 0.610100 5.000000
v 0.550000 0.610100 4.000000
v 0.750000 0.610100 3.200000
v 1.000000 0.610100 1.000000
v -0.313375 0.008126 4.000000
v -0.665676 0.008126 3.200000
v -1.000000 0.008126 1.000000
v 0.000000 0.008126 4.711452
v 0.313375 0.008126 4.000000
v 0.665676 0.008126 3.200000
v 1.000000 0.008126 1.000000
v 0.000000 0.008126 4.711452
v -0.313375 0.008126 -4.000000
v -0.665676 0.008126 -3.200000
v -1.000000 0.008126 -1.000000
v 0.313375 0.008126 -4.000000
v 0.665676 0.008126 -3.200000
v 1.000000 0.008126 -1.000000
v 0.000000 0.008126 -4.711452
v 0.072320 -0.593848 4.000000
v 0.404324 -0.593848 2.898573
v 0.737014 -0.593848 1.000000
v 0.000000 -0.593848 4.371173
v 0.072320 -0.593848 -4.000000
v 0.404324 -0.593848 -2.898573
v 0.737014 -0.593848 -1.000000
v 0.000000 -0.593848 -4.371173
v -0.072320 -0.593848 4.000000
v -0.404324 -0.593848 2.898573
v -0.737014 -0.593848 1.000000
v 0.000000 -0.593848 4.371173
v -0.072320 -0.593848 -4.000000
v -0.404324 -0.593848 -2.898573
v -0.737014 -0.593848 -1.000000
v 0.000000 -0.593848 -4.371173
v -0.443753 0.610100 1.882589
v -0.215153 0.610100 2.000000
v -0.887506 0.610100 1.223683
v -0.712694 0.610100 1.573306
v -1.000000 0.610100 0.484094
v -1.000000 0.610100 -0.812427
v -0.733176 0.610100 -2.097742
v -0.468344 0.610100 -2.353236
v -0.201706 0.610100 -2.431677
v 0.443753 0.610100 1.882589
v 0.215153 0.610100 2.000000
v 0.887506 0.610100 1.223683
v 0.712694 0.610100 1.573306
v 1.000000 0.610100 0.484094
v 1.000000 0.610100 -0.812427
v 0.733176 0.610100 -2.097742
v 0.468344 0.610100 -2.353236
v 0.201706 0.610100 -2.431677
v -0.443753 0.911087 1.882589
v -0.215153 0.911087 2.000000
v -0.887506 0.911087 1.223683
v -0.712694 0.911087 1.573306
v -1.000000 0.911087 0.484094
v -1.000000 0.911087 -0.812427
v -0.733176 0.911087 -2.097742
v -0.468344 0.911087 -2.353236
v -0.201706 0.911087 -2.431677
v 0.443753 0.911087 1.882589
v 0.215153 0.911087 2.000000
v 0.887506 0.911087 1.223683
v 0.712694 0.911087 1.573306
v 1.000000 0.911087 0.484094
v 1.000000 0.911087 -0.812427
v 0.733176 0.911087 -2.097742
v 0.468344 0.911087 -2.353236
v 0.201706 0.911087 -2.431677
v 0.278850 0.911087 0.564186
v 0.363154 0.911087 0.155637
v -0.278850 0.911087 0.564186
v -0.363154 0.911087 0.155637
v 0.278850 0.911087 0.564186
v 0.363154 0.911087 0.155637
v -0.278850 0.911087 0.564186
v -0.363154 0.911087 0.155637
v 0.278850 1.299563 0.564186
v 0.363154 1.299563 0.155637
v -0.278850 1.299563 0.564186
v -0.363154 1.299563 0.155637
v 0.278850 1.299563 0.564186
v 0.363154 1.299563 0.155637
v -0.278850 1.299563 0.564186
v -0.363154 1.299563 0.155637
v 0.358797 1.492302 0.674861
v 0.443101 1.492302 0.155640
v -0.358797 1.492302 0.674861
v -0.443101 1.492302 0.155640
v 0.363154 0.911087 -0.357832
v -0.363154 0.911087 -0.357832
v 0.363154 1.299563 -0.357832
v -0.363154 1.299563 -0.357832
v -0.287611 1.429120 0.155637
v -0.287611 1.429120 -0.357832
v 0.287611 1.429120 0.155637
v 0.287611 1.429120 -0.357832
v -0.068114 0.911089 -0.495374
v -0.198692 0.911089 -0.547288
v -0.276771 0.911089 -0.641109
v -0.307732 0.911089 -0.743060
v -0.311485 0.911089 -0.975736
v -0.270204 0.911089 -1.107085
v -0.181074 0.911089 -1.215917
v -0.057543 0.911089 -1.284823
v 0.068114 0.911089 -0.495374
v 0.198692 0.911089 -0.547288
v 0.276771 0.911089 -0.641109
v 0.307732 0.911089 -0.743060
v 0.311485 0.911089 -0.975736
v 0.270204 0.911089 -1.107085
v 0.181074 0.911089 -1.215917
v 0.057543 0.911089 -1.284823
v -0.065796 0.911066 -0.554527
v -0.172575 0.911066 -0.594343
v -0.216011 0.911066 -0.677595
v -0.243158 0.911066 -0.753607
v -0.257636 0.911066 -0.968975
v -0.223250 0.911066 -1.077564
v -0.145428 0.911066 -1.160815
v -0.038649 0.911066 -1.211490
v 0.065796 0.911066 -0.554527
v 0.172575 0.911066 -0.594343
v 0.216011 0.911066 -0.677595
v 0.243158 0.911066 -0.753607
v 0.257636 0.911066 -0.968975
v 0.223250 0.911066 -1.077564
v 0.145428 0.911066 -1.160815
v 0.038649 0.911066 -1.211490
v -0.068114 1.613002 -0.661592
v -0.198692 1.613002 -0.713506
v -0.276771 1.613002 -0.807327
v -0.307732 1.613002 -0.909279
v -0.311485 1.613002 -1.141954
v -0.270204 1.613002 -1.273304
v -0.181074 1.613002 -1.382136
v -0.057543 1.613002 -1.451042
v 0.068114 1.613002 -0.661592
v 0.198692 1.613002 -0.713506
v 0.276771 1.613002 -0.807327
v 0.307732 1.613002 -0.909279
v 0.311485 1.613002 -1.141954
v 0.270204 1.613002 -1.273304
v 0.181074 1.613002 -1.382136
v 0.057543 1.613002 -1.451042
v -0.065796 1.612978 -0.720746
v -0.172575 1.612978 -0.760561
v -0.216011 1.612978 -0.843813
v -0.243158 1.612978 -0.919825
v -0.257636 1.612978 -1.135193
v -0.223250 1.612978 -1.243782
v -0.145428 1.612978 -1.327033
v -0.038649 1.612978 -1.377708
v 0.065796 1.612978 -0.720746
v 0.172575 1.612978 -0.760561
v 0.216011 1.612978 -0.843813
v 0.243158 1.612978 -0.919825
v 0.257636 1.612978 -1.135193
v 0.223250 1.612978 -1.243782
v 0.145428 1.612978 -1.327033
v 0.038649 1.612978 -1.377708
v -0.312944 1.536538 0.613444
v -0.357249 1.536538 0.212100
v 0.312944 1.536538 0.613444
v 0.357249 1.536538 0.212100
v -0.120091 1.429122 -0.087005
v -0.120091 1.429122 0.087005
v 0.120091 1.429122 -0.087005
v 0.120091 1.429122 0.087005
v -0.088771 1.465627 0.060171
v 0.088771 1.465627 0.060171
v -0.088771 1.465627 -0.060171
v 0.088771 1.465627 -0.060171
v -0.025000 1.465626 0.025000
v -0.025000 1.465626 -0.025000
v 0.025000 1.465626 0.025000
v 0.025000 1.465626 -0.025000
v -0.025000 2.039707 0.025000
v -0.025000 2.039710 -0.025000
v 0.025000 2.039710 0.025000
v 0.025000 2.039710 -0.025000
v -0.249482 1.536539 0.420529
v -0.249482 1.536539 0.370529
v -0.199482 1.536539 0.420529
v -0.199482 1.536539 0.370529
v 0.249482 1.536539 0.420529
v 0.249482 1.536539 0.370529
v 0.199482 1.536539 0.420529
v 0.199482 1.536539 0.370529
v -0.147924 2.035733 0.121302
v -0.072311 2.035733 0.182998
v -0.172213 2.035733 -0.003776
v -0.130949 2.035733 -0.101506
v -0.067968 2.035733 -0.157972
v 0.147924 2.035733 0.121302
v 0.072311 2.035733 0.182998
v 0.172213 2.035733 -0.003776
v 0.130949 2.035733 -0.101506
v 0.067968 2.035733 -0.157972
v -0.130278 2.049013 0.118838
v -0.051364 2.049013 0.165504
v -0.152004 2.049013 -0.005585
v -0.116471 2.049013 -0.085217
v -0.053489 2.049013 -0.136254
v 0.053489 2.049013 -0.136254
v 0.116471 2.049013 -0.085217
v 0.152004 2.049013 -0.005585
v 0.051364 2.049013 0.165504
v 0.130278 2.049013 0.118838
v -0.147924 2.089822 0.121302
v -0.072311 2.089822 0.182998
v -0.172213 2.089822 -0.003776
v -0.130949 2.089822 -0.101506
v -0.067968 2.089822 -0.157972
v 0.147924 2.089822 0.121302
v 0.072311 2.089822 0.182998
v 0.172213 2.089822 -0.003776
v 0.130949 2.089822 -0.101506
v 0.067968 2.089822 -0.157972
v -0.130278 2.089827 0.118838
v -0.051364 2.089827 0.165504
v -0.152004 2.089827 -0.005585
v -0.116471 2.089827 -0.085217
v -0.053489 2.089827 -0.136254
v 0.053489 2.089827 -0.136254
v 0.116471 2.089827 -0.085217
v 0.152004 2.089827 -0.005585
v 0.051364 2.089827 0.165504
v 0.130278 2.089827 0.118838
v -0.025000 2.035733 0.025000
v -0.025000 2.035736 -0.025000
v 0.025000 2.035736 0.025000
v 0.025000 2.035736 -0.025000
vn 0.0000 1.0000 0.0000
vn 0.8611 -0.3385 0.3793
vn 0.8537 -0.2251 0.4696
vn -0.8537 -0.2251 0.4696
vn -0.8611 -0.3385 0.3793
vn -0.9065 -0.3563 0.2266
vn -0.9078 -0.1272 0.3998
vn -0.9841 -0.1379 0.1118
vn -0.9886 0.0000 0.1502
vn -1.0000 0.0000 0.0000
vn -0.9936 0.0000 -0.1129
vn -0.9793 -0.1372 -0.1488
vn -0.9613 -0.1347 -0.2403
vn -0.8612 -0.3385 -0.3792
vn -0.8985 -0.1897 -0.3958
vn -0.8285 -0.3256 -0.4556
vn 0.8985 -0.1897 -0.3958
vn 0.8285 -0.3256 -0.4556
vn 0.8612 -0.3385 -0.3792
vn 0.9613 -0.1347 -0.2403
vn 0.9793 -0.1372 -0.1488
vn 0.9936 0.0000 -0.1129
vn 1.0000 0.0000 0.0000
vn 0.9886 0.0000 0.1502
vn 0.9841 -0.1379 0.1118
vn 0.9078 -0.1272 0.3998
vn 0.9065 -0.3563 0.2266
vn 0.0000 -1.0000 0.0000
vn 0.8923 -0.2222 0.3930
vn 0.9135 -0.3658 0.1780
vn 0.8353 -0.4887 0.2518
vn 0.8593 -0.3441 0.3784
vn 0.8827 -0.4504 0.1341
vn 0.9048 -0.3953 0.1585
vn 0.9164 -0.4003 0.0000
vn 0.9076 -0.3965 -0.1379
vn 0.8760 -0.4572 -0.1535
vn 0.7851 -0.5140 -0.3457
vn 0.8940 -0.3580 -0.2695
vn 0.8593 -0.3441 -0.3785
vn 0.9759 -0.1075 -0.1901
vn -0.9759 -0.1075 -0.1901
vn -0.8593 -0.3441 -0.3785
vn -0.8940 -0.3580 -0.2695
vn -0.7851 -0.5140 -0.3457
vn -0.8760 -0.4572 -0.1535
vn -0.9076 -0.3965 -0.1379
vn -0.9164 -0.4003 0.0000
vn -0.9048 -0.3953 0.1585
vn -0.8827 -0.4504 0.1341
vn -0.8353 -0.4887 0.2518
vn -0.8593 -0.3441 0.3784
vn -0.9135 -0.3658 0.1780
vn -0.8923 -0.2222 0.3930
vn 0.9791 0.0000 -0.2033
vn 0.6943 0.0000 -0.7197
vn 0.2822 0.0000 -0.9593
vn 0.0000 0.0000 -1.0000
vn -0.2822 0.0000 -0.9593
vn -0.6943 0.0000 -0.7197
vn -0.9791 0.0000 -0.2033
vn -0.9886 0.0000 0.1504
vn -0.8944 0.0000 0.4472
vn -0.7546 0.0000 0.6562
vn -0.4569 0.0000 0.8895
vn 0.0000 0.0000 1.0000
vn 0.4569 0.0000 0.8895
vn 0.7546 0.0000 0.6562
vn 0.8944 0.0000 0.4472
vn 0.9886 0.0000 0.1504
vn 0.9794 0.0000 0.2021
vn -0.9794 0.0000 0.2021
vn 0.0000 -0.4980 0.8672
vn 0.8940 -0.4175 0.1625
vn -0.8940 -0.4175 0.1625
vn -0.8639 0.5037 0.0000
vn 0.8639 0.5037 0.0000
vn 0.9546 0.0686 0.2899
vn -0.9388 -0.0794 -0.3353
vn 0.9999 0.0038 0.0161
vn -0.9976 -0.0159 -0.0671
vn 0.9516 -0.0708 -0.2991
vn -0.9509 0.0713 0.3011
vn 0.7651 -0.1484 -0.6266
vn -0.7212 0.1596 0.6741
vn 0.4770 -0.2025 -0.8552
vn -0.3608 0.2149 0.9075
vn -0.4193 0.2092 0.8834
vn 0.3411 -0.2166 -0.9147
vn -0.7600 0.1498 0.6325
vn 0.8813 -0.1089 -0.4598
vn -0.9546 0.0686 0.2899
vn 0.9388 -0.0794 -0.3353
vn -0.9999 0.0038 0.0161
vn 0.9976 -0.0159 -0.0671
vn -0.9516 -0.0708 -0.2991
vn 0.9509 0.0713 0.3011
vn -0.7651 -0.1484 -0.6266
vn 0.7212 0.1596 0.6741
vn -0.4770 -0.2025 -0.8552
vn 0.4193 0.2092 0.8834
vn 0.3608 0.2149 0.9075
vn -0.3411 -0.2166 -0.9147
vn 0.7600 0.1498 0.6325
vn -0.8813 -0.1089 -0.4598
vn 0.0000 0.2304 0.9731
vn 0.0000 -0.2304 -0.9731
vn -0.0004 1.0000 -0.0000
vn -0.0003 1.0000 -0.0001
vn -0.0003 1.0000 -0.0002
vn -0.0002 1.0000 -0.0004
vn 0.0000 1.0000 -0.0004
vn 0.0002 1.0000 -0.0004
vn 0.0003 1.0000 -0.0002
vn 0.0003 1.0000 -0.0001
vn 0.0004 1.0000 -0.0000
vn 0.0004 1.0000 0.0001
vn 0.0003 1.0000 0.0003
vn 0.0002 1.0000 0.0003
vn 0.0000 1.0000 0.0003
vn -0.0002 1.0000 0.0003
vn -0.0003 1.0000 0.0003
vn -0.0004 1.0000 0.0001
vn 0.0000 0.7872 -0.6167
vn -0.5539 0.8290 0.0774
vn 0.0000 0.8114 0.5844
vn 0.5539 0.8290 0.0774
vn -0.7590 0.6511 0.0000
vn 0.0000 0.5923 -0.8057
vn 0.7590 0.6511 0.0000
vn 0.0000 0.5923 0.8057
vn -0.9132 0.4074 0.0000
vn -0.0000 0.6180 0.7862
vn 0.9132 -0.4074 0.0000
vn 0.0000 -0.6180 -0.7862
vn 0.9132 0.4074 0.0000
vn -0.9132 -0.4074 -0.0000
vn -0.0001 1.0000 -0.0002
vn -0.0003 1.0000 0.0000
vn -0.0002 1.0000 -0.0001
vn -0.0001 1.0000 0.0002
vn 0.0001 1.0000 0.0002
vn 0.0003 1.0000 0.0000
vn 0.0002 1.0000 -0.0001
vn 0.0001 1.0000 -0.0002
vn 0.0000 1.0000 -0.0002
vn 0.5090 0.0000 -0.8608
vn 0.9851 0.0000 -0.1720
vn 0.9132 0.0000 0.4075
vn 0.6296 0.0000 0.7769
vn -0.6296 0.0000 0.7769
vn -0.9132 0.0000 0.4075
vn -0.9851 0.0000 -0.1720
vn -0.5090 0.0000 -0.8608
vn 0.6322 0.0000 0.7748
vn 0.9817 0.0000 0.1906
vn 0.9212 0.0000 -0.3890
vn 0.6675 0.0000 -0.7446
vn -0.6675 0.0000 -0.7446
vn -0.9212 0.0000 -0.3890
vn -0.9817 0.0000 0.1906
vn -0.6322 0.0000 0.7748
usemtl None
s off
f 1//1 2//1 3//1 10//1 9//1 8//1 11//1 12//1 13//1 14//1 7//1 6//1 5//1 4//1
f 12//2 22//2 19//2
f 12//3 11//3 22//3
f 11//4 8//4 22//4
f 15//5 22//5 8//5
f 8//6 9//6 15//6
f 16//7 15//7 9//7
f 9//8 10//8 16//8
f 17//9 16//9 10//9
f 17//10 10//10 3//10 25//10
f 3//11 2//11 25//11
f 2//12 24//12 25//12
f 1//13 24//13 2//13
f 1//14 23//14 24//14
f 4//15 29//15 23//15
f 4//16 23//16 1//16
f 29//17 4//17 26//17
f 4//18 5//18 26//18
f 26//19 5//19 27//19
f 5//20 6//20 27//20
f 27//21 6//21 28//21
f 6//22 7//22 28//22
f 21//23 28//23 7//23 14//23
f 21//24 14//24 20//24
f 14//25 13//25 20//25
f 20//26 13//26 19//26
f 13//27 12//27 19//27
f 45//28 34//28 35//28 36//28 32//28 31//28 30//28 33//28 41//28 38//28 39//28 40//28 44//28 43//28 42//28 37//28
f 22//29 41//29 19//29
f 19//30 41//30 30//30
f 31//31 20//31 30//31
f 19//32 30//32 20//32
f 20//33 31//33 21//33
f 32//34 21//34 31//34
f 21//35 32//35 36//35 28//35
f 28//36 36//36 27//36
f 36//37 35//37 27//37
f 27//38 35//38 26//38
f 35//39 34//39 26//39
f 26//40 34//40 29//40
f 34//41 45//41 29//41
f 45//42 42//42 29//42
f 23//43 29//43 42//43
f 42//44 43//44 23//44
f 23//45 43//45 24//45
f 43//46 44//46 24//46
f 24//47 44//47 25//47
f 25//48 44//48 40//48 17//48
f 40//49 39//49 17//49
f 17//50 39//50 16//50
f 39//51 38//51 16//51
f 16//52 38//52 15//52
f 38//53 41//53 15//53
f 15//54 41//54 22//54
f 74//1 73//1 76//1 75//1 77//1 78//1 79//1 80//1 81//1 72//1 71//1 70//1 69//1 68//1 66//1 67//1 64//1 65//1
f 59//23 60//23 78//23 77//23
f 60//55 61//55 79//55 78//55
f 61//56 62//56 80//56 79//56
f 62//57 63//57 81//57 80//57
f 54//58 72//58 81//58 63//58
f 54//59 53//59 71//59 72//59
f 53//60 52//60 70//60 71//60
f 52//61 51//61 69//61 70//61
f 51//10 50//10 68//10 69//10
f 50//62 48//62 66//62 68//62
f 48//63 49//63 67//63 66//63
f 49//64 46//64 64//64 67//64
f 47//65 65//65 64//65 46//65
f 65//66 47//66 56//66 74//66
f 56//67 55//67 73//67 74//67
f 55//68 58//68 76//68 73//68
f 58//69 57//69 75//69 76//69
f 57//70 59//70 77//70 75//70
f 85//66 84//66 88//66 89//66
f 83//66 82//66 86//66 87//66
f 86//66 94//66 96//66 88//66
f 86//71 87//71 95//71 94//71
f 89//72 88//72 96//72 97//72
f 94//73 98//73 100//73 96//73
f 98//74 94//74 95//74 99//74
f 101//58 99//58 95//58 97//58
f 97//75 96//75 100//75 101//75
f 103//10 89//10 97//10 105//10
f 105//76 97//76 106//76 107//76
f 109//1 107//1 106//1 108//1
f 104//77 109//77 108//77 95//77
f 102//23 104//23 95//23 87//23
f 107//58 109//58 104//58 102//58 103//58 105//58
f 121//78 153//78 152//78 120//78
f 137//79 136//79 168//79 169//79
f 122//80 154//80 153//80 121//80
f 138//81 137//81 169//81 170//81
f 123//82 155//82 154//82 122//82
f 139//83 138//83 170//83 171//83
f 124//84 156//84 155//84 123//84
f 140//85 139//85 171//85 172//85
f 125//86 157//86 156//86 124//86
f 111//87 110//87 142//87 143//87
f 141//88 140//88 172//88 173//88
f 127//89 159//89 158//89 126//89
f 112//90 111//90 143//90 144//90
f 128//91 160//91 159//91 127//91
f 113//92 112//92 144//92 145//92
f 129//93 161//93 160//93 128//93
f 114//94 113//94 145//94 146//94
f 130//95 162//95 161//95 129//95
f 115//96 114//96 146//96 147//96
f 131//97 163//97 162//97 130//97
f 116//98 115//98 147//98 148//98
f 132//99 164//99 163//99 131//99
f 117//100 116//100 148//100 149//100
f 133//101 165//101 164//101 132//101
f 119//102 151//102 150//102 118//102
f 135//103 134//103 166//103 167//103
f 120//104 152//104 151//104 119//104
f 136//105 135//105 167//105 168//105
f 141//106 173//106 165//106 133//106
f 125//107 117//107 149//107 157//107
f 158//107 166//107 134//107 126//107
f 142//106 110//106 118//106 150//106
f 154//108 170//108 169//108 153//108
f 153//109 169//109 168//109 152//109
f 152//110 168//110 167//110 151//110
f 151//111 167//111 166//111 150//111
f 166//112 158//112 142//112 150//112
f 143//113 142//113 158//113 159//113
f 144//114 143//114 159//114 160//114
f 145//115 144//115 160//115 161//115
f 146//116 145//116 161//116 162//116
f 147//117 146//117 162//117 163//117
f 148//118 147//118 163//118 164//118
f 149//119 148//119 164//119 165//119
f 165//120 173//120 157//120 149//120
f 157//121 173//121 172//121 156//121
f 156//122 172//122 171//122 155//122
f 155//123 171//123 170//123 154//123
f 101//124 175//124 177//124 99//124
f 175//125 101//125 100//125 174//125
f 100//126 98//126 176//126 174//126
f 99//127 177//127 176//127 98//127
f 175//1 174//1 176//1 177//1
f 179//128 182//128 184//128 178//128
f 185//129 180//129 178//129 184//129
f 183//130 181//130 180//130 185//130
f 182//131 179//131 181//131 183//131
f 184//1 182//1 183//1 185//1
f 192//23 188//23 189//23 193//23
f 191//58 193//58 189//58 187//58
f 190//10 191//10 187//10 186//10
f 190//66 186//66 188//66 192//66
f 194//132 190//132 191//132 195//132
f 194//133 196//133 192//133 190//133
f 196//134 197//134 193//134 192//134
f 195//135 191//135 193//135 197//135
f 198//133 192//133 190//133 200//133
f 198//136 199//136 193//136 192//136
f 201//135 191//135 193//135 199//135
f 200//137 190//137 191//137 201//137
f 202//28 204//28 205//28 206//28 211//28 210//28 209//28 207//28 208//28 203//28
f 219//1 218//1 217//1 216//1 215//1 214//1 212//1 213//1 220//1 221//1
f 235//138 236//138 226//138 225//138
f 232//139 234//139 224//139 222//139
f 225//140 224//140 234//140 235//140
f 223//141 233//141 232//141 222//141
f 228//120 240//120 233//120 223//120
f 240//142 228//142 227//142 241//142
f 239//143 241//143 227//143 229//143
f 230//144 238//144 239//144 229//144
f 237//145 238//145 230//145 231//145
f 226//146 236//146 237//146 231//146
f 233//58 240//58 220//58 213//58
f 232//147 233//147 213//147 212//147
f 232//148 212//148 214//148 234//148
f 234//149 214//149 215//149 235//149
f 235//150 215//150 216//150 236//150
f 236//66 216//66 217//66 237//66
f 237//151 217//151 218//151 238//151
f 238//152 218//152 219//152 239//152
f 239//153 219//153 221//153 241//153
f 240//154 241//154 221//154 220//154
f 208//66 228//66 223//66 203//66
f 208//155 207//155 227//155 228//155
f 207//156 209//156 229//156 227//156
f 210//157 230//157 229//157 209//157
f 210//158 211//158 231//158 230//158
f 211//58 206//58 226//58 231//58
f 205//159 225//159 226//159 206//159
f 204//160 224//160 225//160 205//160
f 202//161 222//161 224//161 204//161
f 203//162 223//162 222//162 202//162
l 11 18
l 22 33
l 76 82
l 86 90
l 87 91
l 88 92
l 89 93
l 90 94
l 91 95
l 92 96
l 93 97
l 202 212
l 203 213
l 204 214
l 205 215
l 206 216
l 244 245
l 243 245
l 242 243
l 242 244
