# Blender v2.78 (sub 0) OBJ File: 'ship_drawer.blend'
# www.blender.org
mtllib ship_drawer.mtl
o Cube
v -14.000000 0.000000 -14.000000
v 14.000000 0.000000 -14.000000
v 14.000000 0.000000 14.000000
v -14.000000 0.000000 14.000000
v -14.000000 1.844720 -14.000000
v 14.000000 1.844720 -14.000000
v 14.000000 1.844720 14.000000
v -14.000000 1.844720 14.000000
v -14.000000 0.000000 -14.000000
v 14.000000 0.000000 -14.000000
v 14.000000 0.000000 14.000000
v -14.000000 0.000000 14.000000
v -14.000000 1.844720 -14.000000
v 14.000000 1.844720 -14.000000
v 14.000000 1.844720 14.000000
v -14.000000 1.844720 14.000000
v 14.500000 -1.644679 -15.600000
v 15.600000 1.844720 -14.500000
v 15.600000 1.844720 14.500000
v 14.500000 2.003263 -15.600000
v 15.600000 -1.803222 -14.500000
v 15.600000 -1.803222 14.500000
v -15.600000 -1.803222 14.500000
v -15.600000 1.844720 14.500000
v -14.500000 -1.803222 15.600000
v -14.500000 1.844720 15.600000
v 14.500000 1.844720 15.600000
v 14.500000 -1.803222 15.600000
v -14.500000 -1.644679 -15.600000
v -15.600000 1.844720 -14.500000
v -14.500000 2.003263 -15.600000
v -15.600000 -1.803222 -14.500000
vn 0.0000 0.0000 -1.0000
vn 1.0000 0.0000 0.0000
vn 0.0000 0.0000 1.0000
vn -1.0000 0.0000 0.0000
vn -0.7071 0.0000 -0.7071
vn -0.7071 0.0000 0.7071
vn 0.7071 0.0000 0.7071
vn 0.7071 0.0000 -0.7071
vn 0.0000 -1.0000 -0.0049
vn -0.0000 1.0000 0.0000
vn 0.0341 0.9934 0.1091
vn -0.0341 0.9934 0.1091
vn 0.0000 0.9951 0.0986
usemtl None
s off
f 12//1 16//1 15//1 11//1
f 9//2 13//2 16//2 12//2
f 9//3 10//3 14//3 13//3
f 10//4 11//4 15//4 14//4
f 23//4 24//4 30//4 32//4
f 30//5 31//5 29//5 32//5
f 23//6 25//6 26//6 24//6
f 27//3 26//3 25//3 28//3
f 27//7 28//7 22//7 19//7
f 18//2 19//2 22//2 21//2
f 18//8 21//8 17//8 20//8
f 20//1 17//1 29//1 31//1
f 23//9 32//9 29//9 17//9 21//9 22//9 28//9 25//9
f 24//10 26//10 16//10
f 27//10 19//10 15//10
f 18//11 20//11 14//11
f 31//12 30//12 13//12
f 13//13 14//13 20//13 31//13
f 15//10 19//10 18//10 14//10
f 16//10 26//10 27//10 15//10
f 13//10 30//10 24//10 16//10
l 4 3
l 2 1
l 3 2
l 1 5
l 2 6
l 3 7
l 8 4
