# Blender v2.79 (sub 0) OBJ File: 'artillery_token_imrpint.blend'
# www.blender.org
mtllib artillery_token_imrpint.mtl
o Cylinder_Cylinder.002
v 0.000000 0.900000 -1.220422
v 0.000000 0.900000 0.779578
v 0.344415 0.831492 -1.220422
v 0.344415 0.831492 0.779578
v 0.636396 0.636396 -1.220422
v 0.636396 0.636396 0.779578
v 0.831492 0.344415 -1.220422
v 0.831492 0.344415 0.779578
v 0.900000 0.000000 -1.220422
v 0.900000 -0.000000 0.779578
v -0.900000 0.000000 -1.220422
v -0.900000 -0.000000 0.779578
v -0.831491 0.344415 -1.220422
v -0.831491 0.344415 0.779578
v -0.636396 0.636396 -1.220422
v -0.636396 0.636396 0.779578
v -0.344415 0.831492 -1.220422
v -0.344415 0.831492 0.779578
v 0.000000 0.783627 -1.510714
v 0.299881 0.723977 -1.510714
v 0.554108 0.554108 -1.510714
v 0.723977 0.299881 -1.510714
v 0.783627 0.000000 -1.510714
v -0.783627 0.000000 -1.510714
v -0.723977 0.299881 -1.510714
v -0.554108 0.554108 -1.510714
v -0.299881 0.723977 -1.510714
v 0.000000 0.783627 -1.931851
v 0.299881 0.723977 -1.931851
v 0.554108 0.554108 -1.931851
v 0.723977 0.299881 -1.931851
v 0.783627 0.000000 -1.931851
v -0.783627 0.000000 -1.931851
v -0.723977 0.299881 -1.931851
v -0.554108 0.554108 -1.931851
v -0.299881 0.723977 -1.931851
v 0.000000 0.719651 -2.150211
v 0.275398 0.664870 -2.150211
v 0.508870 0.508870 -2.150211
v 0.664870 0.275398 -2.150211
v 0.719650 0.000000 -2.150211
v -0.719650 0.000000 -2.150211
v -0.664870 0.275399 -2.150211
v -0.508870 0.508870 -2.150211
v -0.275398 0.664871 -2.150211
v 0.000000 0.541360 -2.393343
v 0.207170 0.500152 -2.393343
v 0.382799 0.382799 -2.393343
v 0.500151 0.207170 -2.393343
v 0.541360 0.000000 -2.393343
v -0.541360 0.000000 -2.393343
v -0.500151 0.207170 -2.393343
v -0.382799 0.382800 -2.393343
v -0.207169 0.500152 -2.393343
v 0.000000 0.264541 -2.659094
v 0.101235 0.244404 -2.659094
v 0.187058 0.187059 -2.659094
v 0.244404 0.101235 -2.659094
v 0.264541 0.000000 -2.659094
v -0.264541 0.000000 -2.659094
v -0.244404 0.101235 -2.659094
v -0.187058 0.187059 -2.659094
v -0.101235 0.244404 -2.659094
v 0.000000 1.000000 0.773451
v 0.000000 1.000000 1.303610
v 0.382683 0.923880 0.773451
v 0.382683 0.923880 1.303610
v 0.707107 0.707107 0.773451
v 0.707107 0.707107 1.303610
v 0.923880 0.382683 0.773451
v 0.923880 0.382683 1.303610
v 1.000000 -0.000000 0.773451
v 1.000000 -0.000000 1.303610
v -1.000000 0.000000 0.773451
v -1.000000 0.000000 1.303610
v -0.923879 0.382684 0.773451
v -0.923879 0.382684 1.303610
v -0.707107 0.707107 0.773451
v -0.707107 0.707107 1.303610
v -0.382683 0.923880 0.773451
v -0.382683 0.923880 1.303610
vn 0.1951 0.9808 0.0000
vn 0.5556 0.8315 0.0000
vn 0.8315 0.5556 0.0000
vn 0.9808 0.1951 0.0000
vn -0.9808 0.1951 0.0000
vn -0.8315 0.5556 0.0000
vn -0.5556 0.8315 0.0000
vn -0.1951 0.9808 0.0000
vn 0.7738 0.5170 -0.3659
vn 0.1816 0.9128 -0.3659
vn -0.9128 0.1816 -0.3659
vn -0.1816 0.9128 -0.3659
vn 0.9128 0.1816 -0.3659
vn -0.7738 0.5170 -0.3659
vn 0.5170 0.7738 -0.3659
vn -0.5170 0.7738 -0.3659
vn 0.5340 0.7991 -0.2762
vn 0.7991 0.5340 -0.2762
vn 0.9426 0.1875 -0.2762
vn -0.9426 0.1875 -0.2762
vn -0.7991 0.5340 -0.2762
vn -0.5340 0.7991 -0.2762
vn 0.1875 0.9426 -0.2762
vn -0.1875 0.9426 -0.2762
vn -0.6750 0.4510 -0.5839
vn -0.4510 0.6750 -0.5839
vn 0.1584 0.7962 -0.5839
vn -0.1584 0.7962 -0.5839
vn 0.4510 0.6750 -0.5839
vn 0.6750 0.4510 -0.5839
vn 0.7962 0.1584 -0.5839
vn -0.7962 0.1584 -0.5839
vn -0.6861 0.1365 -0.7146
vn -0.5816 0.3886 -0.7146
vn -0.3886 0.5816 -0.7146
vn 0.1365 0.6861 -0.7146
vn -0.1365 0.6861 -0.7146
vn 0.3886 0.5816 -0.7146
vn 0.5816 0.3886 -0.7146
vn 0.6861 0.1365 -0.7146
vn 0.0000 0.0000 -1.0000
vn 0.0000 0.0000 1.0000
vn -0.0612 -0.0122 -0.9981
vn -0.0518 -0.0346 -0.9981
vn -0.0346 -0.0518 -0.9981
vn -0.0122 -0.0611 -0.9981
vn 0.0122 -0.0611 -0.9981
vn 0.0346 -0.0518 -0.9981
vn 0.0518 -0.0346 -0.9981
vn 0.0612 -0.0122 -0.9981
usemtl None
s off
f 1//1 2//1 4//1 3//1
f 3//2 4//2 6//2 5//2
f 5//3 6//3 8//3 7//3
f 7//4 8//4 10//4 9//4
f 11//5 12//5 14//5 13//5
f 13//6 14//6 16//6 15//6
f 15//7 16//7 18//7 17//7
f 17//8 18//8 2//8 1//8
f 5//9 7//9 22//9 21//9
f 1//10 3//10 20//10 19//10
f 11//11 13//11 25//11 24//11
f 17//12 1//12 19//12 27//12
f 7//13 9//13 23//13 22//13
f 13//14 15//14 26//14 25//14
f 3//15 5//15 21//15 20//15
f 15//16 17//16 27//16 26//16
f 22//4 23//4 32//4 31//4
f 24//5 25//5 34//5 33//5
f 25//6 26//6 35//6 34//6
f 26//7 27//7 36//7 35//7
f 19//1 20//1 29//1 28//1
f 27//8 19//8 28//8 36//8
f 20//2 21//2 30//2 29//2
f 21//3 22//3 31//3 30//3
f 29//17 30//17 39//17 38//17
f 30//18 31//18 40//18 39//18
f 31//19 32//19 41//19 40//19
f 33//20 34//20 43//20 42//20
f 34//21 35//21 44//21 43//21
f 35//22 36//22 45//22 44//22
f 28//23 29//23 38//23 37//23
f 36//24 28//24 37//24 45//24
f 43//25 44//25 53//25 52//25
f 44//26 45//26 54//26 53//26
f 37//27 38//27 47//27 46//27
f 45//28 37//28 46//28 54//28
f 38//29 39//29 48//29 47//29
f 39//30 40//30 49//30 48//30
f 40//31 41//31 50//31 49//31
f 42//32 43//32 52//32 51//32
f 51//33 52//33 61//33 60//33
f 52//34 53//34 62//34 61//34
f 53//35 54//35 63//35 62//35
f 46//36 47//36 56//36 55//36
f 54//37 46//37 55//37 63//37
f 47//38 48//38 57//38 56//38
f 48//39 49//39 58//39 57//39
f 49//40 50//40 59//40 58//40
f 55//41 56//41 57//41 58//41 59//41 60//41 61//41 62//41 63//41
f 64//1 65//1 67//1 66//1
f 66//2 67//2 69//2 68//2
f 68//3 69//3 71//3 70//3
f 70//4 71//4 73//4 72//4
f 74//5 75//5 77//5 76//5
f 76//6 77//6 79//6 78//6
f 78//7 79//7 81//7 80//7
f 80//8 81//8 65//8 64//8
f 67//42 65//42 81//42 79//42 77//42 75//42 73//42 71//42 69//42
f 10//43 8//43 70//43 72//43
f 8//44 6//44 68//44 70//44
f 6//45 4//45 66//45 68//45
f 4//46 2//46 64//46 66//46
f 2//47 18//47 80//47 64//47
f 18//48 16//48 78//48 80//48
f 16//49 14//49 76//49 78//49
f 14//50 12//50 74//50 76//50
l 72 74
