# Blender v2.79 (sub 0) OBJ File: 'token_base.blend'
# www.blender.org
mtllib token_base.mtl
o Token_Base_Cube
v 0.000000 -0.044009 -1.000000
v -0.500000 -0.044009 -0.866025
v -0.866025 -0.044009 -0.500000
v -1.000000 -0.044009 0.000000
v -0.866025 -0.044009 0.500000
v -0.500000 -0.044009 0.866025
v -0.000000 -0.044009 1.000000
v 0.500000 -0.044009 0.866026
v 0.866025 -0.044009 0.500000
v 1.000000 -0.044009 0.000000
v 0.866026 -0.044009 -0.499999
v 0.500001 -0.044009 -0.866025
v 0.000000 0.044009 -1.000000
v -0.500000 0.044009 -0.866025
v -0.866025 0.044009 -0.500000
v -1.000000 0.044009 0.000000
v -0.866025 0.044009 0.500000
v -0.500000 0.044009 0.866025
v -0.000000 0.044009 1.000000
v 0.500000 0.044009 0.866026
v 0.866025 0.044009 0.500000
v 1.000000 0.044009 0.000000
v 0.866026 0.044009 -0.499999
v 0.500001 0.044009 -0.866025
v 0.000000 -0.044009 -0.850000
v -0.425000 -0.044009 -0.736122
v -0.736122 -0.044009 -0.425000
v -0.850000 -0.044009 0.000000
v -0.736122 -0.044009 0.425000
v -0.425000 -0.044009 0.736122
v -0.000000 -0.044009 0.850000
v 0.425000 -0.044009 0.736122
v 0.736121 -0.044009 0.425000
v 0.850000 -0.044009 0.000000
v 0.736122 -0.044009 -0.425000
v 0.425000 -0.044009 -0.736121
v 0.500000 0.000000 0.866026
v 0.866025 0.000000 0.500000
v -0.866025 0.000000 0.500000
v -0.500000 0.000000 0.866025
v 0.500001 0.000000 -0.866025
v 0.000000 0.000000 -1.000000
v -0.500000 0.000000 -0.866025
v -0.866025 0.000000 -0.500000
v 1.000000 0.000000 0.000000
v -0.000000 0.000000 1.000000
v -1.000000 0.000000 0.000000
v 0.866026 0.000000 -0.499999
v 0.000000 0.044009 -0.850000
v -0.425000 0.044009 -0.736122
v -0.736122 0.044009 -0.425000
v -0.850000 0.044009 0.000000
v -0.736122 0.044009 0.425000
v -0.425000 0.044009 0.736122
v -0.000000 0.044009 0.850000
v 0.425000 0.044009 0.736122
v 0.736121 0.044009 0.425000
v 0.850000 0.044009 0.000000
v 0.736122 0.044009 -0.425000
v 0.425000 0.044009 -0.736121
v 0.500001 -0.107828 -0.866025
v 0.866026 -0.107828 -0.499999
v 1.000000 -0.107828 0.000000
v 0.866025 -0.107828 0.500000
v 0.500000 -0.107828 0.866026
v -0.000000 -0.107828 1.000000
v -0.500000 -0.107828 0.866025
v -0.866025 -0.107828 0.500000
v -1.000000 -0.107828 0.000000
v -0.866025 -0.107828 -0.500000
v -0.500000 -0.107828 -0.866025
v 0.000000 -0.107828 -1.000000
v 0.000000 -0.107828 -0.850000
v -0.425000 -0.107828 -0.736122
v -0.736122 -0.107828 -0.425000
v -0.850000 -0.107828 0.000000
v -0.736122 -0.107828 0.425000
v -0.425000 -0.107828 0.736122
v -0.000000 -0.107828 0.850000
v 0.425000 -0.107828 0.736122
v 0.736121 -0.107828 0.425000
v 0.850000 -0.107828 0.000000
v 0.736122 -0.107828 -0.425000
v 0.425000 -0.107828 -0.736121
v 0.500001 0.107828 -0.866025
v 0.866026 0.107828 -0.499999
v 1.000000 0.107828 0.000000
v 0.866025 0.107828 0.500000
v 0.500000 0.107828 0.866026
v -0.000000 0.107828 1.000000
v -0.500000 0.107828 0.866025
v -0.866025 0.107828 0.500000
v -1.000000 0.107828 0.000000
v -0.866025 0.107828 -0.500000
v -0.500000 0.107828 -0.866025
v 0.000000 0.107828 -1.000000
v 0.000000 0.107828 -0.850000
v -0.425000 0.107828 -0.736122
v -0.736122 0.107828 -0.425000
v -0.850000 0.107828 0.000000
v -0.736122 0.107828 0.425000
v -0.425000 0.107828 0.736122
v -0.000000 0.107828 0.850000
v 0.425000 0.107828 0.736122
v 0.736121 0.107828 0.425000
v 0.850000 0.107828 0.000000
v 0.736122 0.107828 -0.425000
v 0.425000 0.107828 -0.736121
vn 0.0000 -1.0000 0.0000
vn -0.9659 0.0000 0.2588
vn -0.9659 0.0000 -0.2588
vn -0.7071 0.0000 -0.7071
vn -0.2588 0.0000 -0.9659
vn 0.2588 0.0000 -0.9659
vn 0.7071 0.0000 -0.7071
vn 0.9659 0.0000 -0.2588
vn 0.9659 0.0000 0.2588
vn 0.7071 0.0000 0.7071
vn 0.2588 0.0000 0.9659
vn -0.2588 0.0000 0.9659
vn -0.7071 0.0000 0.7071
vn -0.0000 1.0000 0.0000
usemtl Material
s off
f 26//1 25//1 36//1 35//1 34//1 33//1 32//1 31//1 30//1 29//1 28//1 27//1
f 34//2 35//2 83//2 82//2
f 33//3 34//3 82//3 81//3
f 32//4 33//4 81//4 80//4
f 31//5 32//5 80//5 79//5
f 30//6 31//6 79//6 78//6
f 29//7 30//7 78//7 77//7
f 28//8 29//8 77//8 76//8
f 27//9 28//9 76//9 75//9
f 26//10 27//10 75//10 74//10
f 25//11 26//11 74//11 73//11
f 73//12 84//12 36//12 25//12
f 83//13 35//13 36//13 84//13
f 38//9 64//9 63//9 45//9
f 38//10 37//10 65//10 64//10
f 37//11 46//11 66//11 65//11
f 46//12 40//12 67//12 66//12
f 40//13 39//13 68//13 67//13
f 39//2 47//2 69//2 68//2
f 47//3 44//3 70//3 69//3
f 44//4 43//4 71//4 70//4
f 43//5 42//5 72//5 71//5
f 42//6 41//6 61//6 72//6
f 41//7 48//7 62//7 61//7
f 63//8 62//8 48//8 45//8
f 73//1 72//1 61//1 84//1
f 84//1 61//1 62//1 83//1
f 83//1 62//1 63//1 82//1
f 81//1 82//1 63//1 64//1
f 80//1 81//1 64//1 65//1
f 79//1 80//1 65//1 66//1
f 78//1 79//1 66//1 67//1
f 78//1 67//1 68//1 77//1
f 77//1 68//1 69//1 76//1
f 76//1 69//1 70//1 75//1
f 75//1 70//1 71//1 74//1
f 73//1 74//1 71//1 72//1
f 50//14 51//14 52//14 53//14 54//14 55//14 56//14 57//14 58//14 59//14 60//14 49//14
f 58//2 106//2 107//2 59//2
f 57//3 105//3 106//3 58//3
f 56//4 104//4 105//4 57//4
f 55//5 103//5 104//5 56//5
f 54//6 102//6 103//6 55//6
f 53//7 101//7 102//7 54//7
f 52//8 100//8 101//8 53//8
f 51//9 99//9 100//9 52//9
f 50//10 98//10 99//10 51//10
f 49//11 97//11 98//11 50//11
f 97//12 49//12 60//12 108//12
f 107//13 108//13 60//13 59//13
f 38//9 45//9 87//9 88//9
f 38//10 88//10 89//10 37//10
f 37//11 89//11 90//11 46//11
f 46//12 90//12 91//12 40//12
f 40//13 91//13 92//13 39//13
f 39//2 92//2 93//2 47//2
f 47//3 93//3 94//3 44//3
f 44//4 94//4 95//4 43//4
f 43//5 95//5 96//5 42//5
f 42//6 96//6 85//6 41//6
f 41//7 85//7 86//7 48//7
f 87//8 45//8 48//8 86//8
f 97//14 108//14 85//14 96//14
f 108//14 107//14 86//14 85//14
f 107//14 106//14 87//14 86//14
f 105//14 88//14 87//14 106//14
f 104//14 89//14 88//14 105//14
f 103//14 90//14 89//14 104//14
f 102//14 91//14 90//14 103//14
f 102//14 101//14 92//14 91//14
f 101//14 100//14 93//14 92//14
f 100//14 99//14 94//14 93//14
f 99//14 98//14 95//14 94//14
f 97//14 96//14 95//14 98//14
l 2 1
l 3 2
l 4 3
l 5 4
l 6 5
l 7 6
l 8 7
l 9 8
l 10 9
l 11 10
l 12 11
l 1 12
l 20 19
l 24 23
l 17 53
l 12 61
l 11 62
l 18 54
l 20 56
l 22 58
l 21 88
l 24 60
l 37 8
l 10 63
l 39 5
l 14 50
l 41 12
l 16 15
l 43 2
l 22 21
l 19 55
l 16 52
l 24 85
l 21 57
l 1 25
l 2 26
l 3 27
l 4 28
l 5 29
l 6 30
l 7 31
l 8 32
l 9 33
l 10 34
l 11 35
l 12 36
l 9 64
l 9 38
l 6 40
l 23 59
l 1 42
l 18 17
l 3 44
l 10 45
l 7 46
l 4 47
l 11 48
l 8 65
l 7 66
l 6 67
l 5 68
l 4 69
l 3 70
l 2 71
l 1 72
l 23 86
l 15 51
l 15 14
l 21 20
l 22 87
l 23 22
l 14 13
l 17 16
l 13 24
l 19 18
l 13 49
l 20 89
l 19 90
l 18 91
l 17 92
l 16 93
l 15 94
l 14 95
l 13 96
l 37 20
l 43 14
l 39 17
l 21 38
l 18 40
l 13 42
l 15 44
l 41 24
l 22 45
l 19 46
l 16 47
l 23 48
