# Blender v2.78 (sub 0) OBJ File: 'ship_drawer.blend'
# www.blender.org
mtllib ship_drawer.mtl
o Cube
v -14.000000 0.000000 -14.000000
v 14.000000 0.000000 -14.000000
v 14.000000 0.000000 14.000000
v -14.000000 0.000000 14.000000
v -14.000000 1.844720 -14.000000
v 14.000000 1.844720 -14.000000
v 14.000000 1.844720 14.000000
v -14.000000 1.844720 14.000000
v -14.000000 0.000000 -14.000000
v 14.000000 0.000000 -14.000000
v 14.000000 0.000000 14.000000
v -14.000000 0.000000 14.000000
v -14.000000 1.844720 -14.000000
v 14.000000 1.844720 -14.000000
v 14.000000 1.844720 14.000000
v -14.000000 1.844720 14.000000
v 14.500000 -1.644679 -15.600000
v 15.600000 1.844720 -14.500000
v 15.600000 1.844720 14.500000
v 14.500000 2.003263 -15.600000
v 15.600000 -1.803222 -14.500000
v 15.600000 -1.803222 14.500000
v -15.600000 -1.803222 14.500000
v -15.600000 1.844720 14.500000
v -14.500000 -1.803222 15.600000
v -14.500000 1.844720 15.600000
v 14.500000 1.844720 15.600000
v 14.500000 -1.803222 15.600000
v -14.500000 -1.644679 -15.600000
v -15.600000 1.844720 -14.500000
v -14.500000 2.003263 -15.600000
v -15.600000 -1.803222 -14.500000
vt 0.0001 0.8813
vt 0.0532 0.8304
vt 0.8698 0.8779
vt 0.9134 0.9279
vt 0.0817 0.0001
vt 0.1312 0.0556
vt 0.9999 0.0001
vt 0.9404 0.0498
vt 0.1884 0.6959
vt 0.1091 0.7560
vt 0.1637 0.1243
vt 0.2264 0.1936
vt 0.1951 0.0953
vt 0.2482 0.1710
vt 0.2094 0.7200
vt 0.1397 0.7944
vt 0.7975 0.8235
vt 0.7391 0.7445
vt 0.7642 0.7231
vt 0.8347 0.7936
vt 0.8802 0.1403
vt 0.8041 0.2046
vt 0.7828 0.1794
vt 0.8465 0.1026
vn 0.0000 0.0000 -1.0000
vn 1.0000 0.0000 0.0000
vn 0.0000 0.0000 1.0000
vn -1.0000 0.0000 0.0000
vn -0.7071 0.0000 -0.7071
vn -0.7071 0.0000 0.7071
vn 0.7071 0.0000 0.7071
vn 0.7071 0.0000 -0.7071
vn 0.0000 -1.0000 -0.0049
vn -0.0000 1.0000 0.0000
vn 0.0341 0.9934 0.1091
vn -0.0341 0.9934 0.1091
vn 0.0000 0.9951 0.0986
usemtl None
s off
f 12/1/1 16/2/1 15/3/1 11/4/1
f 9/5/2 13/6/2 16/2/2 12/1/2
f 9/5/3 10/7/3 14/8/3 13/6/3
f 10/7/4 11/4/4 15/3/4 14/8/4
f 23/9/4 24/10/4 30/11/4 32/12/4
f 30/11/5 31/13/5 29/14/5 32/12/5
f 23/9/6 25/15/6 26/16/6 24/10/6
f 27/17/3 26/16/3 25/15/3 28/18/3
f 27/17/7 28/18/7 22/19/7 19/20/7
f 18/21/2 19/20/2 22/19/2 21/22/2
f 18/21/8 21/22/8 17/23/8 20/24/8
f 20/24/1 17/23/1 29/14/1 31/13/1
f 23/9/9 32/12/9 29/14/9 17/23/9 21/22/9 22/19/9 28/18/9 25/15/9
f 24/10/10 26/16/10 16/2/10
f 27/17/10 19/20/10 15/3/10
f 18/21/11 20/24/11 14/8/11
f 31/13/12 30/11/12 13/6/12
f 13/6/13 14/8/13 20/24/13 31/13/13
f 15/3/10 19/20/10 18/21/10 14/8/10
f 16/2/10 26/16/10 27/17/10 15/3/10
f 13/6/10 30/11/10 24/10/10 16/2/10
l 4 3
l 2 1
l 3 2
l 1 5
l 2 6
l 3 7
l 8 4
